<svg width="569" height="569" viewBox="0 0 569 569" fill="none" xmlns="http://www.w3.org/2000/svg">
<rect y="97" width="400" height="75" rx="12" fill="white"/>
<path d="M150 259C150 252.373 155.373 247 162 247H388C394.627 247 400 252.373 400 259V322H162C155.373 322 150 316.627 150 310V259Z" fill="white"/>
<path d="M0 397H400V460C400 466.627 394.627 472 388 472H12C5.37257 472 0 466.627 0 460V397Z" fill="white"/>
<path d="M0 447L0 259C0 252.373 5.37258 247 12 247H63C69.6274 247 75 252.373 75 259L75 447H0Z" fill="white"/>
<path d="M325 447V259C325 252.373 330.373 247 337 247H388C394.627 247 400 252.373 400 259V447H325Z" fill="white"/>
<path d="M325 322L325 335C324.423 328.073 318.926 322.577 312 322L325 322Z" fill="white"/>
<path d="M325 397.001L325 384.001C324.423 390.927 318.926 396.424 312 397.001L325 397.001Z" fill="white"/>
<path d="M74.95 397.001L74.9501 384.001C75.5273 390.927 81.0235 396.424 87.95 397.001L74.95 397.001Z" fill="white"/>
</svg>
